<svg xmlns="http://www.w3.org/2000/svg" viewBox="0 0 500 500">
  <g fill="none" stroke="#ab1f18" stroke-width="8" stroke-linecap="round" stroke-linejoin="round">
    <path d="M220 470 C215 370, 215 265, 220 40" />
    <path d="M290 470 C285 375, 285 275, 290 55" />
    <path d="M220 100 L290 100" /><path d="M220 170 L290 170" /><path d="M220 245 L290 245" />
    <path d="M220 320 L290 320" /><path d="M220 395 L290 395" />
    <path d="M222 170 C165 145, 120 110, 85 65" />
    <path d="M222 245 C150 235, 95 215, 40 180" />
    <path d="M288 140 C345 120, 390 90, 445 40" />
    <path d="M288 225 C360 215, 410 195, 468 162" />
  </g>
</svg>